# xmcd CD database file
#
# Track frame offsets:
#	150
#	15320
#	68028
#	79713
#	94755
#	123038
#	160203
#	190230
#	209878
#	234003
#
# Disc length: 3623 seconds
#
# Revision: 2
# Processed by: cddbd v1.5.2PL0 Copyright (c) Steve Scherf et al.
# Submitted via: CDex 1.77
#
DISCID=740e250a
DTITLE=Dukowski, Cutler, Stinson - United Gang Members
DYEAR=1992
DGENRE=Punk
TTITLE0=Yo Muthafucka!
TTITLE1=Public Sex
TTITLE2=I Just Want To
TTITLE3=Machine Jam
TTITLE4=I Can't Get It
TTITLE5=Duke's a Kook
TTITLE6=Jazz Jam
TTITLE7=I'm a Gang Member
TTITLE8=L.L.
TTITLE9=Rock Me Baby
EXTD=YEAR: 1992
EXTT0=
EXTT1=
EXTT2=
EXTT3=
EXTT4=
EXTT5=
EXTT6=
EXTT7=
EXTT8=
EXTT9=
PLAYORDER=
